<svg fill="none" height="68" viewBox="0 0 65 68" width="65" xmlns="http://www.w3.org/2000/svg"><path d="m11.4314 13.7951-2.11827 2.2188c-.36848.386-.37242.9803-.00879 1.3275l10.76486 10.2769c.3636.3472.9571.3157 1.3256-.0703l2.1182-2.2188c.3685-.3859.3724-.9803.0088-1.3274l-10.7648-10.277c-.3637-.3471-.9571-.3156-1.3256.0703z" fill="#ff6b00"/><path d="m12.3847 11.7725-2.1182 2.2188c-.36849.386-.37242.9803-.0088 1.3274l10.7648 10.277c.3637.3471.9572.3157 1.3256-.0703l2.1183-2.2188c.3685-.386.3724-.9803.0088-1.3274l-10.7649-10.277c-.3636-.3472-.9571-.3157-1.3256.0703z" fill="#fff"/><path d="m17.2344 36.036-15.14301.3511c-.51152.0118-.9162.4539-.90383.9874l.0711 3.0667c.01237.5335.4371.9564.94863.9445l15.14301-.3511c.5115-.0118.9162-.4539.9038-.9874l-.0711-3.0667c-.0124-.5335-.4371-.9564-.9486-.9445z" fill="#ff6b00"/><path d="m18.1878 34.0133-15.14304.3511c-.51152.0119-.9162.454-.90383.9875l.0711 3.0667c.01237.5335.4371.9563.94863.9445l15.14304-.3511c.5115-.0119.9161-.454.9038-.9874l-.0711-3.0668c-.0124-.5335-.4371-.9563-.9486-.9445z" fill="#fff"/><path d="m20.6219 52.2214-10.277 10.7649c-.34711.3636-.3156.9571.0703 1.3256l2.2188 2.1182c.386.3685.9803.3724 1.3275.0088l10.2769-10.7648c.3472-.3636.3157-.9572-.0703-1.3256l-2.2187-2.1183c-.386-.3684-.9803-.3724-1.3275-.0088z" fill="#ff6b00"/><path d="m21.5753 50.1988-10.277 10.7649c-.3471.3636-.3157.9571.0703 1.3256l2.2188 2.1182c.386.3685.9803.3724 1.3274.0088l10.277-10.7648c.3472-.3637.3157-.9572-.0703-1.3256l-2.2188-2.1183c-.386-.3684-.9803-.3724-1.3274-.0088z" fill="#fff"/><path d="m58.1989 12.8969-10.277 10.7648c-.3471.3637-.3157.9571.0703 1.3256l2.2188 2.1183c.386.3685.9803.3724 1.3274.0088l10.277-10.7649c.3472-.3636.3157-.9571-.0703-1.3256l-2.2188-2.1182c-.3859-.3685-.9803-.3724-1.3274-.0088z" fill="#ff6b00"/><path d="m59.1522 10.8743-10.2769 10.7648c-.3472.3636-.3157.9571.0703 1.3256l2.2188 2.1182c.3859.3685.9803.3724 1.3274.0088l10.277-10.7648c.3471-.3636.3157-.9572-.0703-1.3256l-2.2188-2.1183c-.386-.3685-.9803-.3724-1.3275-.0087z" fill="#fff"/><path d="m37.4473 3.55872-3.0668.07111c-.5335.01236-.9563.43707-.9445.9486l.3511 15.14307c.0119.5115.454.9161.9875.9038l3.0667-.0711c.5335-.0124.9563-.4371.9445-.9486l-.3511-15.14307c-.0119-.51153-.454-.91618-.9874-.90381z" fill="#ff6b00"/><path d="m38.4006 1.53608-3.0667.0711c-.5335.01237-.9564.43708-.9445.9486l.3511 15.14302c.0119.5115.4539.9162.9874.9038l3.0668-.0711c.5335-.0124.9563-.4371.9444-.9486l-.351-15.14301c-.0119-.51153-.454-.91618-.9875-.90381z" fill="#fff"/></svg>