<svg fill="none" height="34" viewBox="0 0 34 34" width="34" xmlns="http://www.w3.org/2000/svg" xmlns:xlink="http://www.w3.org/1999/xlink"><clipPath id="a"><path d="m0 0h34v34h-34z"/></clipPath><g clip-path="url(#a)"><path d="m34 17c0-9.38885-7.6112-17-17-17-9.38885 0-17 7.61115-17 17 0 8.4851 6.21662 15.5181 14.3438 16.7935v-11.8794h-4.3165v-4.9141h4.3165v-3.7453c0-4.26064 2.538-6.61408 6.4211-6.61408 1.8594 0 3.8054.33203 3.8054.33203v4.18355h-2.1436c-2.1117 0-2.7705 1.3106-2.7705 2.6563v3.1875h4.7149l-.7537 4.9141h-3.9612v11.8794c8.1272-1.2754 14.3438-8.3084 14.3438-16.7935z" fill="#002922"/></g></svg>