<svg fill="none" height="34" viewBox="0 0 34 34" width="34" xmlns="http://www.w3.org/2000/svg" xmlns:xlink="http://www.w3.org/1999/xlink"><clipPath id="a"><path d="m0 0h34v34h-34z"/></clipPath><g clip-path="url(#a)" fill="#002922"><path d="m17 3.06133c4.5422 0 5.0801.01992 6.8664.09961 1.6602.07304 2.5567.35195 3.1543.58437.7902.30547 1.3613.67735 1.9524 1.26836.5976.59766.9628 1.16211 1.2683 1.95235.2324.59765.5113 1.50078.5844 3.15428.0797 1.793.0996 2.3309.0996 6.8664 0 4.5422-.0199 5.0801-.0996 6.8664-.0731 1.6602-.352 2.5567-.5844 3.1543-.3055.7903-.6773 1.3613-1.2683 1.9524-.5977.5976-1.1622.9629-1.9524 1.2683-.5976.2324-1.5008.5114-3.1543.5844-1.793.0797-2.3308.0996-6.8664.0996-4.5422 0-5.0801-.0199-6.8664-.0996-1.66016-.073-2.55664-.352-3.1543-.5844-.79024-.3054-1.36133-.6773-1.95235-1.2683-.59765-.5977-.96289-1.1621-1.26836-1.9524-.23242-.5976-.51132-1.5008-.58437-3.1543-.07969-1.7929-.09961-2.3308-.09961-6.8664 0-4.5422.01992-5.0801.09961-6.8664.07305-1.66015.35195-2.55663.58437-3.15428.30547-.79024.67735-1.36133 1.26836-1.95235.59766-.59765 1.16211-.96289 1.95235-1.26836.59766-.23242 1.50078-.51133 3.1543-.58437 1.7863-.07969 2.3242-.09961 6.8664-.09961zm0-3.06133c-4.6152 0-5.193.0199219-7.00586.0996094-1.80625.0796876-3.04804.3718746-4.12383.7902346-1.12226.438276-2.07187 1.016016-3.01484 1.965626-.94961.94297-1.52734 1.89258-1.965626 3.0082-.41836 1.08242-.710547 2.31758-.7902346 4.12383-.0796875 1.8195-.0996094 2.3973-.0996094 7.0125s.0199219 5.193.0996094 7.0059c.0796876 1.8062.3718746 3.048.7902346 4.1238.438286 1.1223 1.016016 2.0719 1.965626 3.0148.94297.943 1.89258 1.5274 3.0082 1.959 1.08243.4184 2.31758.7106 4.12383.7902 1.8129.0797 2.3906.0997 7.0059.0997 4.6152 0 5.1929-.02 7.0058-.0997 1.8063-.0796 3.0481-.3718 4.1239-.7902 1.1156-.4316 2.0652-1.016 3.0082-1.959.9429-.9429 1.5273-1.8925 1.9589-3.0082.4184-1.0824.7106-2.3176.7903-4.1238.0797-1.8129.0996-2.3906.0996-7.0059 0-4.6152-.0199-5.1929-.0996-7.0058-.0797-1.80627-.3719-3.04807-.7903-4.12385-.4183-1.1289-.996-2.07851-1.9457-3.02148-.9429-.94297-1.8925-1.52735-3.0082-1.958986-1.0824-.418359-2.3175-.710547-4.1238-.790234-1.8195-.0863281-2.3973-.10625-7.0125-.10625z"/><path d="m17 8.26758c-4.8211 0-8.73242 3.91132-8.73242 8.73242s3.91132 8.7324 8.73242 8.7324 8.7324-3.9113 8.7324-8.7324-3.9113-8.73242-8.7324-8.73242zm0 14.39692c-3.1277 0-5.6645-2.5368-5.6645-5.6645s2.5368-5.6645 5.6645-5.6645 5.6645 2.5368 5.6645 5.6645-2.5368 5.6645-5.6645 5.6645z"/><path d="m28.1164 7.92222c0 1.12891-.9164 2.03867-2.0387 2.03867-1.1289 0-2.0386-.9164-2.0386-2.03867 0-1.12891.9164-2.03868 2.0386-2.03868 1.1223 0 2.0387.91641 2.0387 2.03868z"/></g></svg>