<svg fill="none" height="38" viewBox="0 0 19 38" width="19" xmlns="http://www.w3.org/2000/svg"><g fill="#ff94b4"><path d="m6.86111 29v-2.1521c-2.63889-.2691-4.75-2.5826-4.75-5.3266v-13.98883c0-2.95919 2.375-5.38034 5.27778-5.38034h4.22221c2.9028 0 5.2778 2.42115 5.2778 5.38034v13.98883c0 2.7978-2.1111 5.0575-4.75 5.3266v2.1521c3.8528-.269 6.8611-3.551 6.8611-7.4787v-13.98883c0-4.14286-3.325-7.53247-7.3889-7.53247h-4.22221c-4.06389 0-7.38889 3.38961-7.38889 7.53247v13.98883c0 3.9815 3.00833 7.2097 6.86111 7.4787z"/><path d="m9.5 11c.825 0 1.5-.45 1.5-1v-3c0-.55-.675-1-1.5-1s-1.5.45-1.5 1v3c0 .55.675 1 1.5 1z"/><path d="m8.5 26.2667v2.1333 5.9733l-.8-.8533c-.2-.2133-.45-.32-.7-.32s-.5.1067-.7.32c-.4.4267-.4 1.0667 0 1.4933l.7.7467 1.8 1.92c.05.0533.1.1067.15.1067l.05.0533c.05 0 .05.0533.1.0533s.05 0 .1.0534c.05 0 .05 0 .1.0533h.2.2c.05 0 .05 0 .1-.0533.05 0 .05 0 .1-.0534.05 0 .05-.0533.1-.0533 0 0 .05 0 .05-.0533.05-.0534.1-.1067.15-.1067l1.8-1.92.7-.7467c.4-.4266.4-1.0666 0-1.4933-.2-.2133-.45-.32-.7-.32s-.5.1067-.7.32l-.8.8533v-5.9733-2.1333-3.2c0-.5867-.45-1.0667-1-1.0667s-1 .48-1 1.0667z"/></g></svg>