<svg fill="none" height="51" viewBox="0 0 74 51" width="74" xmlns="http://www.w3.org/2000/svg"><path d="m0 11.1348h68v37.9115h-68z" fill="#ff97b6" transform="matrix(.98650249 -.16374626 .16374626 .98650249 -1.823282 .150292)"/><path d="m15.0464 35.1992-2.3563-14.1953 3.6705-.6092 7.0858 6.5338-1.2454-7.5032 3.8936-.6463 2.3562 14.1953-3.4474.5722-7.356-6.7807 1.2925 7.7871zm15.5166-2.5755-2.3563-14.1953 11.4171-1.8951.5554 3.346-7.5235 1.2488.3568 2.1496 6.8138-1.131.515 3.1027-6.8138 1.131.3736 2.251 7.625-1.2657.5553 3.3461zm16.9293-2.7059-7.1183-13.509 4.1572-.6901 3.8373 7.8024 1.3677-8.708 3.3865-.5621 4.1077 7.7991 1.1108-8.6236 4.0761-.6766-2.3723 15.0843-3.4271.5689-4.2159-7.6978-1.4825 8.6437z" fill="#002922"/></svg>