<svg fill="none" height="60" viewBox="0 0 73 60" width="73" xmlns="http://www.w3.org/2000/svg"><path d="m14.3194 29.9905-1.215 2.8167c-.2114.4899-.0085 1.0486.4531 1.2477l13.6655 5.8949c.4617.1992 1.0072-.0366 1.2186-.5266l1.215-2.8167c.2114-.49.0085-1.0486-.4531-1.2477l-13.6655-5.895c-.4617-.1991-1.0072.0367-1.2186.5267z" fill="#fff"/><path d="m14.5103 27.7626-1.215 2.8166c-.2114.49-.0085 1.0487.4531 1.2478l13.6656 5.8949c.4616.1992 1.0071-.0366 1.2185-.5266l1.215-2.8167c.2114-.49.0085-1.0486-.4531-1.2477l-13.6655-5.895c-.4616-.1991-1.0072.0367-1.2186.5267z" fill="#002922"/><path d="m27.4905 48.8279-14.077 5.5923c-.4755.1889-.7013.7441-.5043 1.24l1.1325 2.8508c.1971.4959.7423.7448 1.2178.5559l14.077-5.5922c.4755-.1889.7012-.7441.5042-1.24l-1.1325-2.8508c-.197-.4959-.7422-.7449-1.2177-.556z" fill="#fff"/><path d="m27.6817 46.6-14.077 5.5923c-.4755.1889-.7013.744-.5043 1.24l1.1325 2.8508c.197.4959.7422.7448 1.2177.5559l14.077-5.5922c.4755-.1889.7013-.7441.5043-1.24l-1.1325-2.8508c-.197-.496-.7422-.7449-1.2177-.556z" fill="#002922"/><path d="m57.8593 12.894-5.895 13.6656c-.1991.4616.0367 1.0071.5266 1.2185l2.8167 1.215c.49.2114 1.0486.0085 1.2478-.4531l5.8949-13.6655c.1991-.4616-.0366-1.0072-.5266-1.2186l-2.8167-1.215c-.49-.2114-1.0486-.0085-1.2477.4531z" fill="#fff"/><path d="m58.0502 10.6661-5.895 13.6656c-.1991.4616.0367 1.0071.5267 1.2185l2.8166 1.215c.49.2114 1.0487.0085 1.2478-.4531l5.8949-13.6655c.1992-.4616-.0366-1.0072-.5266-1.2186l-2.8167-1.215c-.4899-.2114-1.0486-.0085-1.2477.4531z" fill="#002922"/><path d="m35.1558 11.3502-2.8509 1.1326c-.4959.197-.7448.7422-.5559 1.2177l5.5922 14.077c.1889.4755.7441.7013 1.24.5042l2.8509-1.1325c.4959-.197.7448-.7422.5559-1.2177l-5.5922-14.077c-.1889-.4755-.7441-.7013-1.24-.5043z" fill="#fff"/><path d="m35.3467 9.12232-2.8508 1.13258c-.496.197-.7449.7422-.556 1.2177l5.5923 14.077c.1889.4755.744.7013 1.24.5042l2.8508-1.1325c.4959-.197.7448-.7422.5559-1.2177l-5.5922-14.077c-.1889-.47551-.7441-.70129-1.24-.50428z" fill="#002922"/></svg>