<svg fill="none" height="37" viewBox="0 0 42 37" width="42" xmlns="http://www.w3.org/2000/svg" xmlns:xlink="http://www.w3.org/1999/xlink"><filter id="a" color-interpolation-filters="sRGB" filterUnits="userSpaceOnUse" height="42" width="42" x="0" y="0"><feFlood flood-opacity="0" result="BackgroundImageFix"/><feColorMatrix in="SourceAlpha" result="hardAlpha" type="matrix" values="0 0 0 0 0 0 0 0 0 0 0 0 0 0 0 0 0 0 127 0"/><feOffset dy="4"/><feGaussianBlur stdDeviation="2"/><feComposite in2="hardAlpha" operator="out"/><feColorMatrix type="matrix" values="0 0 0 0 0 0 0 0 0 0 0 0 0 0 0 0 0 0 0.25 0"/><feBlend in2="BackgroundImageFix" mode="normal" result="effect1_dropShadow_149_368"/><feBlend in="SourceGraphic" in2="effect1_dropShadow_149_368" mode="normal" result="shape"/></filter><g filter="url(#a)"><path d="m37.6613 10.2s-.332-2.34409-1.3547-3.37339c-1.2949-1.35469-2.7425-1.36133-3.4066-1.44101-4.7547-.34532-11.8934-.34532-11.8934-.34532h-.0132s-7.1387 0-11.8934.34532c-.66406.07968-2.11172.08632-3.40664 1.44101-1.02266 1.0293-1.34805 3.37339-1.34805 3.37339s-.34531 2.7559-.34531 5.5051v2.5766c0 2.7492.33867 5.5051.33867 5.5051s.33203 2.3441 1.34805 3.3734c1.29492 1.3547 2.99492 1.3082 3.75195 1.4543 2.72263.259 11.56133.3387 11.56133.3387s7.1453-.0133 11.9-.352c.6641-.0797 2.1117-.0863 3.4066-1.441 1.0227-1.0293 1.3547-3.3734 1.3547-3.3734s.3387-2.7493.3387-5.5051v-2.5766c0-2.7492-.3387-5.5051-.3387-5.5051zm-20.1742 11.2094v-9.5558l9.184 4.7945z" fill="#002922"/></g></svg>